<svg xmlns="http://www.w3.org/2000/svg" xmlns:xlink="http://www.w3.org/1999/xlink" width="98.57" height="76.949" viewBox="0 0 98.57 76.949"><defs><filter id="a" x="0" y="0" width="98.57" height="76.949" filterUnits="userSpaceOnUse"><feOffset dy="1" input="SourceAlpha"/><feGaussianBlur stdDeviation="1.5" result="b"/><feFlood flood-opacity="0.161"/><feComposite operator="in" in2="b"/><feComposite in="SourceGraphic"/></filter></defs><g transform="translate(4.5 3.5)"><g transform="matrix(1, 0, 0, 1, -4.5, -3.5)" filter="url(#a)"><path d="M37.529,6.44,32.947,1.213A3.468,3.468,0,0,0,30.341,0H3.6A3.768,3.768,0,0,0,0,3.914V64.033a3.768,3.768,0,0,0,3.6,3.915H85.97a3.767,3.767,0,0,0,3.6-3.915V11.569a3.767,3.767,0,0,0-3.6-3.915H40.135A3.467,3.467,0,0,1,37.529,6.44" transform="translate(4.5 3.5)" fill="#7fd3f6"/></g><path d="M85.97,124.578H3.6A3.57,3.57,0,0,1,0,121.04V73.62a3.57,3.57,0,0,1,3.6-3.539H85.97a3.57,3.57,0,0,1,3.6,3.539v47.42a3.57,3.57,0,0,1-3.6,3.539" transform="translate(0 -56.629)" fill="#9be1ff"/></g></svg>